<svg width="123" height="72" viewBox="0 0 123 72" fill="none" xmlns="http://www.w3.org/2000/svg">
<path fill-rule="evenodd" clip-rule="evenodd" d="M106.02 35.8672C106.056 35.8672 106.093 35.9038 106.093 36.0135C105.655 36.5986 104.89 37.2935 103.942 37.9883C102.994 38.6832 101.864 39.3415 100.697 39.89C99.4575 40.4752 98.4003 40.9872 97.2336 41.2798C95.9576 41.6089 94.8274 41.7186 93.916 41.6455C93.1868 41.5723 92.567 41.3529 92.0931 40.9506C92.0566 40.9506 92.0566 40.8775 92.0566 40.8409C92.0566 40.7678 92.1296 40.7312 92.166 40.7312C95.0462 40.2558 97.6711 39.5243 100.114 38.6832C102.52 37.8786 104.525 36.8912 106.02 35.8672Z" fill="white"/>
<path fill-rule="evenodd" clip-rule="evenodd" d="M105.765 34.4769C104.197 35.4278 101.025 36.7809 98.2547 37.5855C94.937 38.5363 92.3121 39.0118 90.5257 38.7558C88.958 38.5363 88.1924 37.8049 87.9372 37.5489C87.9007 37.5123 87.8643 37.4758 87.8643 37.4392C87.8643 37.366 87.9007 37.3295 87.9736 37.3295L88.557 37.2929C89.8694 37.1832 92.2392 37.1466 95.0099 36.7078C98.2182 36.2323 103.322 35.2815 105.656 34.3672C105.765 34.3672 105.801 34.4038 105.765 34.4769Z" fill="white"/>
<path fill-rule="evenodd" clip-rule="evenodd" d="M105.511 38.61C105.548 38.61 105.584 38.6466 105.584 38.7197C105.001 40.1094 104.345 41.17 103.069 41.7917C100.808 42.9254 99.6416 42.3037 99.4958 42.2306C99.4593 42.194 99.4229 42.1574 99.4229 42.1209C99.4229 42.0843 99.4593 42.0112 99.5322 42.0112C100.517 41.7186 103.47 40.5849 105.475 38.61C105.475 38.61 105.475 38.5734 105.511 38.61Z" fill="white"/>
<path fill-rule="evenodd" clip-rule="evenodd" d="M120.311 17.2176C120.348 17.2542 120.384 17.2542 120.384 17.2907C120.384 17.3273 120.348 17.3639 120.275 17.3639C119.619 17.181 118.16 16.7787 116.374 16.3033C112.254 15.1696 96.6138 11.0736 96.3586 11.0004L96.2857 10.9639C95.3378 10.6713 94.5722 10.1959 93.9889 9.57415C93.8066 9.3913 93.6608 9.20844 93.515 8.95244C93.0046 8.14787 92.8587 6.97758 92.8223 6.79472C92.8223 6.75815 92.8223 6.72158 92.8587 6.68501C92.8952 6.64844 92.9316 6.64844 93.0046 6.64844L95.5566 7.63587C101.609 9.97644 117.686 16.157 120.311 17.2176Z" fill="white"/>
<path fill-rule="evenodd" clip-rule="evenodd" d="M117.686 14.7657C117.723 14.8754 117.65 14.912 117.577 14.8754C116.666 14.4 114.587 13.4492 112.509 12.3886C110.759 11.5109 98.6919 5.87886 97.8534 5.47658L96.3951 4.74515C96.1764 4.63543 95.9941 4.52572 95.8118 4.416C95.2285 4.08686 94.9368 3.83086 94.6452 3.42857C94.39 3.09943 94.2077 2.69715 94.0254 2.33143C93.6973 1.45372 93.6973 0.32 93.6973 0.137143C93.6973 0.100572 93.6973 0.0640001 93.7702 0.0274286C93.8066 -0.00914287 93.8431 -0.00914287 93.916 0.0274286L95.4108 0.941715L96.2128 1.45372L100.624 4.12343C106.822 7.89029 115.462 13.3394 117.686 14.7657Z" fill="white"/>
<path fill-rule="evenodd" clip-rule="evenodd" d="M122.136 18.8986C122.173 18.8986 122.209 18.9352 122.209 18.9718C122.209 19.0083 122.173 19.0449 122.1 19.0449C119.73 18.8621 98.3661 17.4723 98.3661 17.4723C98.1838 17.4358 98.0015 17.4358 97.8192 17.3626C96.1057 16.814 95.1213 15.534 94.7203 14.2175C94.7203 14.1809 94.6838 14.1078 94.7203 14.0712C94.7568 14.0346 94.7932 13.998 94.8661 13.998C94.8661 14.0346 120.058 18.4963 122.136 18.8986Z" fill="white"/>
<path fill-rule="evenodd" clip-rule="evenodd" d="M121.077 20.3242C121.113 20.3242 121.15 20.3608 121.15 20.4339C121.15 20.4705 121.113 20.5071 121.077 20.5071C120.202 20.6534 103.978 22.9208 103.869 22.9574C103.76 22.9574 103.687 22.9939 103.577 22.9939C103.504 22.9939 103.395 22.9939 103.286 22.9939C102.52 22.9208 101.755 22.5551 101.098 21.8236C100.77 21.4579 100.442 20.8728 100.369 20.6534C100.333 20.6168 100.333 20.5802 100.369 20.5436C100.406 20.5071 100.442 20.4705 100.479 20.4705C100.479 20.4705 105.911 20.4339 109.374 20.4339C111.926 20.4339 114.66 20.4339 116.884 20.3974C118.78 20.3608 120.348 20.3608 121.077 20.3242Z" fill="white"/>
<path fill-rule="evenodd" clip-rule="evenodd" d="M119.874 22.0078C119.91 22.0078 119.983 22.0078 119.983 22.0444C119.983 22.081 120.056 22.1175 119.947 22.1541C119.437 22.5198 107.77 27.3838 107.661 27.4204C107.041 27.6398 106.312 27.7495 105.801 26.8718C105.583 26.5061 105.4 26.2135 105.291 26.0672C105.255 26.0307 105.109 25.8844 105.473 25.7747C105.473 25.7747 108.754 24.897 111.671 24.129C115.025 23.2878 118.853 22.3004 119.874 22.0078Z" fill="white"/>
<path fill-rule="evenodd" clip-rule="evenodd" d="M114.733 30.125C114.77 30.125 114.806 30.1616 114.806 30.2713C113.676 31.5879 109.52 36.1959 107.661 38.2073C107.478 38.3902 107.369 38.317 107.442 38.0976C107.442 38.0976 107.806 37.1833 107.952 36.4884C108.062 36.0496 108.134 35.7204 108.39 35.5376C110.832 33.453 113.166 31.405 114.697 30.125L114.733 30.125Z" fill="white"/>
<path fill-rule="evenodd" clip-rule="evenodd" d="M118.561 24.2773C118.598 24.2773 118.634 24.3139 118.598 24.4236C117.468 25.3745 112.254 29.7631 109.447 32.1036L109.338 32.1768C108.536 32.7985 107.989 32.9448 107.879 31.5916C107.843 31.2625 107.806 31.0065 107.806 31.0065C107.77 30.7139 107.843 30.7139 107.952 30.6774C108.864 30.0922 110.614 29.1048 111.999 28.2636C114.551 26.7642 117.431 24.9722 118.561 24.2773Z" fill="white"/>
<path fill-rule="evenodd" clip-rule="evenodd" d="M54.686 9.60884C49.4725 9.60884 45.8997 12.6077 45.8997 18.8248V33.7094H50.0923V18.6786C50.0923 15.4968 51.8058 13.5586 55.0505 13.5586H56.2901C59.9723 13.5586 60.5556 11.6568 60.5556 9.57227H54.686V9.60884ZM12.5775 20.4353L7.43701 19.009C6.01517 18.6067 4.73916 17.985 4.73916 16.2661C4.73916 14.4741 5.83288 13.5964 8.09325 13.5964H12.6504C14.6556 13.5964 17.0618 12.9381 17.0618 9.6101H8.45783C3.17148 9.6101 0.145508 12.2798 0.145508 16.1198C0.145508 19.7038 2.40587 21.7153 6.45266 22.7758L10.9369 23.9461C12.7963 24.4581 13.4525 25.5918 13.4525 26.7987C13.4525 28.5907 12.3223 29.6878 9.55155 29.7244L0.947574 29.8341V33.7473H9.66092C14.9473 33.7473 17.9732 30.8947 17.9732 27.1278C18.0097 23.361 16.5149 21.4958 12.5775 20.4353ZM36.0199 26.3233V9.6101C38.9 9.6101 40.2125 10.8535 40.2125 14.401V27.3838C40.2125 31.8821 35.7647 34.0764 31.2075 34.0764C26.5045 34.0764 22.4941 31.8455 22.4941 27.3838V9.6101C24.4628 9.6101 26.6868 10.2318 26.6868 13.8158L26.7232 26.3233C26.7232 28.7735 28.5461 29.9804 31.3533 29.9804C34.0147 29.9804 36.0199 28.7735 36.0199 26.3233ZM72.6226 9.6101H71.5654C65.9874 9.6101 60.7375 13.7427 60.5187 21.7884C60.3 29.1027 64.0916 34.2227 70.5081 34.2227C75.7944 34.2227 77.6173 30.529 77.6173 30.529C77.909 32.9793 79.2579 33.7473 81.9193 33.7473V13.0478V9.6101H72.6226ZM71.3452 30.3467C75.5013 30.3467 77.3971 27.165 77.3971 23.837V13.4873H72.5483C72.2931 13.5239 72.0379 13.5239 71.7462 13.5239C68.064 13.5239 65.3297 16.0473 65.1474 21.8256C65.0016 27.8599 67.6265 30.3467 71.3452 30.3467Z" fill="white"/>
<path d="M1.4583 58.5862C0.984353 58.4033 0.619778 58.1108 0.364575 57.7451C0.109373 57.3793 0 56.9405 0 56.4285V56.1725C0 56.1359 0 56.0993 0.0364575 56.0628C0.0729151 56.0262 0.109373 56.0262 0.14583 56.0262H1.49476C1.53122 56.0262 1.56767 56.0262 1.60413 56.0628C1.64059 56.0993 1.64059 56.1359 1.64059 56.1725V56.3553C1.64059 56.6845 1.78642 56.9405 2.07808 57.1599C2.36974 57.3793 2.77077 57.4891 3.24472 57.4891C3.64575 57.4891 3.97387 57.4159 4.15616 57.2331C4.3749 57.0502 4.44782 56.8308 4.44782 56.5748C4.44782 56.3919 4.3749 56.2456 4.26553 56.0993C4.15616 55.9531 3.97387 55.8433 3.75513 55.7702C3.53638 55.6605 3.20826 55.5508 2.73431 55.3679C2.22391 55.1851 1.74996 55.0022 1.42184 54.8193C1.05727 54.6365 0.765608 54.3805 0.510405 54.0513C0.255203 53.7222 0.14583 53.3199 0.14583 52.8445C0.14583 52.3691 0.255203 51.9668 0.510405 51.6011C0.765608 51.2353 1.09373 50.9793 1.53122 50.7965C1.96871 50.6136 2.44265 50.5039 3.02598 50.5039C3.6093 50.5039 4.15616 50.6136 4.63011 50.833C5.10405 51.0525 5.46863 51.345 5.72383 51.7108C5.97904 52.0765 6.12487 52.5153 6.12487 53.0273V53.2102C6.12487 53.2468 6.12487 53.2833 6.08841 53.3199C6.05195 53.3565 6.01549 53.3565 5.97904 53.3565H4.63011C4.59365 53.3565 4.55719 53.3565 4.52073 53.3199C4.48428 53.2833 4.48428 53.2468 4.48428 53.2102V53.1005C4.48428 52.7713 4.33845 52.4788 4.08324 52.2593C3.82804 52.0399 3.42701 51.9302 2.98952 51.9302C2.62494 51.9302 2.33328 52.0033 2.11454 52.1496C1.89579 52.2959 1.78642 52.5153 1.78642 52.8079C1.78642 52.9908 1.85933 53.1736 1.96871 53.3199C2.07808 53.4662 2.26037 53.5759 2.51557 53.6856C2.77077 53.7953 3.13535 53.9416 3.6093 54.1245C4.15616 54.3439 4.59365 54.4902 4.92177 54.6731C5.24989 54.8193 5.54154 55.0753 5.76029 55.3679C6.01549 55.6605 6.12487 56.0628 6.12487 56.5748C6.12487 57.3062 5.86966 57.8913 5.3228 58.3302C4.77594 58.7691 4.04679 58.9885 3.13535 58.9885C2.47911 58.8788 1.93225 58.7691 1.4583 58.5862Z" fill="white"/>
<path d="M12.9061 51.9299C12.8697 51.9664 12.8332 51.9664 12.7968 51.9664H8.96871C8.93225 51.9664 8.8958 52.003 8.8958 52.0396V53.8681C8.8958 53.9047 8.93225 53.9413 8.96871 53.9413H11.4843C11.5207 53.9413 11.5572 53.9413 11.5937 53.9779C11.6301 54.0144 11.6301 54.051 11.6301 54.0876V55.2213C11.6301 55.2579 11.6301 55.2944 11.5937 55.331C11.5572 55.3676 11.5207 55.3676 11.4843 55.3676H8.96871C8.93225 55.3676 8.8958 55.4041 8.8958 55.4407V57.3424C8.8958 57.379 8.93225 57.4156 8.96871 57.4156H12.7968C12.8332 57.4156 12.8697 57.4156 12.9061 57.4521C12.9426 57.4887 12.9426 57.5253 12.9426 57.5619V58.6956C12.9426 58.7321 12.9426 58.7687 12.9061 58.8053C12.8697 58.8419 12.8332 58.8419 12.7968 58.8419H7.36458C7.32812 58.8419 7.29167 58.8419 7.25521 58.8053C7.21875 58.7687 7.21875 58.7321 7.21875 58.6956V50.7596C7.21875 50.723 7.21875 50.6864 7.25521 50.6499C7.29167 50.6133 7.32812 50.6133 7.36458 50.6133H12.7968C12.8332 50.6133 12.8697 50.6133 12.9061 50.6499C12.9426 50.6864 12.9426 50.723 12.9426 50.7596V51.8933C12.9426 51.8933 12.9426 51.9299 12.9061 51.9299Z" fill="white"/>
<path d="M15.3867 58.5125C14.9127 58.2565 14.5846 57.9274 14.3294 57.4885C14.0742 57.0497 13.9648 56.5377 13.9648 55.9891V53.3559C13.9648 52.7708 14.0742 52.2954 14.3294 51.8565C14.5846 51.4177 14.9492 51.0885 15.3867 50.8325C15.8606 50.5765 16.371 50.4668 16.9908 50.4668C17.5741 50.4668 18.121 50.5765 18.5585 50.8325C19.0324 51.0519 19.3606 51.3811 19.6158 51.7834C19.871 52.1857 19.9803 52.6245 19.9803 53.1365V53.2097C19.9803 53.2462 19.9803 53.2828 19.9439 53.3194C19.9074 53.3559 19.871 53.3559 19.8345 53.3559H18.4491C18.4127 53.3559 18.3762 53.3559 18.3397 53.3194C18.3033 53.2828 18.3033 53.2462 18.3033 53.2097V53.1731C18.3033 52.8074 18.1939 52.5148 17.9387 52.2588C17.6835 52.0028 17.3554 51.8931 16.9544 51.8931C16.5169 51.8931 16.1888 52.0394 15.9336 52.2954C15.6783 52.5514 15.569 52.9171 15.569 53.3194V56.0622C15.569 56.5011 15.7148 56.8302 15.97 57.0862C16.2617 57.3422 16.5898 57.4885 17.0273 57.4885C17.4283 57.4885 17.7564 57.3788 18.0116 57.1594C18.2668 56.9399 18.3762 56.6474 18.3762 56.2451V55.7331C18.3762 55.6965 18.3397 55.6599 18.3033 55.6599H16.9908C16.9544 55.6599 16.9179 55.6599 16.8814 55.6234C16.845 55.5868 16.845 55.5502 16.845 55.5137V54.4165C16.845 54.3799 16.845 54.3434 16.8814 54.3068C16.9179 54.2702 16.9544 54.2702 16.9908 54.2702H19.8345C19.871 54.2702 19.9074 54.2702 19.9439 54.3068C19.9803 54.3434 19.9803 54.3799 19.9803 54.4165V55.9525C19.9803 56.5377 19.871 57.0497 19.6158 57.4885C19.3606 57.9274 18.996 58.2565 18.5585 58.4759C18.0845 58.6954 17.5741 58.8051 16.9544 58.8051C16.371 58.8782 15.8606 58.7685 15.3867 58.5125Z" fill="white"/>
<path d="M22.6767 58.5488C22.2028 58.3293 21.8747 58.0002 21.6195 57.5613C21.3643 57.1225 21.2549 56.647 21.2549 56.0985V50.7225C21.2549 50.6859 21.2549 50.6493 21.2913 50.6127C21.3278 50.5762 21.3643 50.5762 21.4007 50.5762H22.7861C22.8226 50.5762 22.859 50.5762 22.8955 50.6127C22.9319 50.6493 22.9319 50.6859 22.9319 50.7225V56.0985C22.9319 56.5007 23.0413 56.8665 23.2965 57.0859C23.5517 57.3419 23.8798 57.4516 24.2809 57.4516C24.6819 57.4516 25.0465 57.3419 25.2652 57.0859C25.5204 56.8299 25.6298 56.5007 25.6298 56.0985V50.7225C25.6298 50.6859 25.6298 50.6493 25.6662 50.6127C25.7027 50.5762 25.7392 50.5762 25.7756 50.5762H27.161C27.1975 50.5762 27.2339 50.5762 27.2704 50.6127C27.3068 50.6493 27.3068 50.6859 27.3068 50.7225V56.0985C27.3068 56.647 27.1975 57.159 26.9423 57.5613C26.6871 58.0002 26.3225 58.3293 25.885 58.5488C25.411 58.7682 24.9006 58.9145 24.2809 58.9145C23.6611 58.8779 23.1142 58.7682 22.6767 58.5488Z" fill="white"/>
<path fill-rule="evenodd" clip-rule="evenodd" d="M31.5338 55.4407L32.9921 58.6956C33.0285 58.7687 33.065 58.8053 33.1015 58.8419H34.5598C34.6691 58.8419 34.7056 58.8053 34.7056 58.7321C34.7056 58.7321 34.6691 58.6956 34.6691 58.659L33.065 55.331C33.065 55.2944 33.065 55.2579 33.1015 55.2579C33.6119 55.1116 33.9764 54.819 34.2316 54.4533C34.4869 54.0876 34.6327 53.6487 34.6327 53.1001C34.6327 52.5881 34.5233 52.1493 34.3046 51.7836C34.0858 51.4179 33.7942 51.1253 33.4296 50.9059C33.065 50.723 32.6275 50.6133 32.1171 50.6133H28.763C28.7266 50.6133 28.6901 50.6133 28.6536 50.6499C28.6172 50.6864 28.6172 50.723 28.6172 50.7596V58.6956C28.6172 58.7321 28.6172 58.7687 28.6536 58.8053C28.6901 58.8419 28.7266 58.8419 28.763 58.8419H30.1484C30.1849 58.8419 30.2213 58.8419 30.2578 58.8053C30.2942 58.7687 30.2942 58.7321 30.2942 58.6956V55.4773C30.2942 55.4407 30.3307 55.4041 30.3671 55.4041H31.4609C31.4973 55.4041 31.5338 55.4041 31.5338 55.4407ZM30.2939 54.0524V52.041C30.2939 52.0044 30.3304 52.0044 30.3669 52.0044H31.8981C32.2262 52.0044 32.4814 52.1141 32.7001 52.297C32.9189 52.4798 33.0283 52.7358 33.0283 53.065C33.0283 53.3941 32.9189 53.6501 32.7001 53.833C32.4814 54.0158 32.2262 54.1255 31.8981 54.1255H30.3669C30.3304 54.1255 30.2939 54.089 30.2939 54.0524Z" fill="white"/>
<path fill-rule="evenodd" clip-rule="evenodd" d="M36.0563 57.4885C36.3115 57.9639 36.6761 58.2931 37.15 58.5491C37.624 58.8051 38.1708 58.9148 38.7542 58.9148C39.3739 58.9148 39.9208 58.8051 40.3948 58.5491C40.8687 58.2931 41.2333 57.9274 41.4885 57.4885C41.7437 57.0131 41.8895 56.5011 41.8895 55.9159V53.3925C41.8895 52.8074 41.7437 52.2954 41.4885 51.8565C41.2333 51.4177 40.8687 51.0885 40.3948 50.8325C39.9208 50.5765 39.3739 50.4668 38.7542 50.4668C38.1344 50.4668 37.624 50.5765 37.15 50.8325C36.6761 51.0519 36.3115 51.4177 36.0563 51.8565C35.8011 52.2954 35.6553 52.8074 35.6553 53.3925V55.9159C35.6553 56.5011 35.8011 57.0497 36.0563 57.4885ZM40.2122 55.9891C40.2122 56.4645 40.0663 56.7936 39.8111 57.0862C39.5559 57.3788 39.1914 57.4885 38.7539 57.4885C38.3528 57.4885 37.9883 57.3788 37.7331 57.0862C37.4779 56.7936 37.332 56.4279 37.332 55.9891V53.3925C37.332 52.9536 37.4779 52.5879 37.7331 52.2954C37.9883 52.0394 38.3164 51.8931 38.7539 51.8931C39.1914 51.8931 39.5559 52.0028 39.8111 52.2954C40.0663 52.5879 40.2122 52.9536 40.2122 53.3925V55.9891Z" fill="white"/>
<path d="M44.2942 58.5862C43.8203 58.4033 43.4557 58.1108 43.2005 57.7451C42.9453 57.3793 42.8359 56.9405 42.8359 56.4285V56.1725C42.8359 56.1359 42.8359 56.0993 42.8724 56.0628C42.9089 56.0262 42.9453 56.0262 42.9818 56.0262H44.3307C44.3672 56.0262 44.4036 56.0262 44.4401 56.0628C44.4765 56.0993 44.4765 56.1359 44.4765 56.1725V56.3553C44.4765 56.6845 44.6224 56.9405 44.914 57.1599C45.2057 57.3793 45.6067 57.4891 46.0807 57.4891C46.4817 57.4891 46.8098 57.4159 46.9921 57.2331C47.2108 57.0502 47.2838 56.8308 47.2838 56.5748C47.2838 56.3919 47.2108 56.2456 47.1015 56.0993C46.9921 55.9531 46.8098 55.8433 46.5911 55.7702C46.3723 55.6605 46.0442 55.5508 45.5703 55.3679C45.0598 55.1851 44.5859 55.0022 44.2578 54.8193C43.8932 54.6365 43.6015 54.3805 43.3463 54.0513C43.0911 53.7222 42.9818 53.3199 42.9818 52.8445C42.9818 52.3691 43.0911 51.9668 43.3463 51.6011C43.6015 51.2353 43.9297 50.9793 44.3672 50.7965C44.8046 50.6136 45.2786 50.5039 45.8619 50.5039C46.4452 50.5039 46.9921 50.6136 47.466 50.833C47.94 51.0525 48.3046 51.345 48.5598 51.7108C48.815 52.0765 48.9608 52.5153 48.9608 53.0273V53.2102C48.9608 53.2468 48.9608 53.2833 48.9243 53.3199C48.8879 53.3565 48.8514 53.3565 48.815 53.3565H47.466C47.4296 53.3565 47.3931 53.3565 47.3567 53.3199C47.3202 53.2833 47.3202 53.2468 47.3202 53.2102V53.1005C47.3202 52.7713 47.1744 52.4788 46.9192 52.2593C46.664 52.0399 46.2629 51.9302 45.8255 51.9302C45.4609 51.9302 45.1692 52.0033 44.9505 52.1496C44.7317 52.2959 44.6224 52.5153 44.6224 52.8079C44.6224 52.9908 44.6953 53.1736 44.8046 53.3199C44.914 53.4662 45.0963 53.5759 45.3515 53.6856C45.6067 53.7953 45.9713 53.9416 46.4452 54.1245C46.9921 54.3439 47.4296 54.4902 47.7577 54.6731C48.0858 54.8193 48.3775 55.0753 48.5962 55.3679C48.8514 55.6605 48.9608 56.0628 48.9608 56.5748C48.9608 57.3062 48.7056 57.8913 48.1587 58.3302C47.6119 58.7691 46.8827 58.9885 45.9713 58.9885C45.315 58.8788 44.7682 58.7691 44.2942 58.5862Z" fill="white"/>
<path d="M49.8008 59.7934L50.2018 57.0506C50.2018 56.9774 50.2747 56.9043 50.3476 56.9043H51.5507C51.6601 56.9043 51.6966 56.9409 51.6601 57.0506L50.931 59.7934C50.8945 59.8666 50.858 59.9032 50.7851 59.9032H49.9466C49.8372 59.9397 49.8008 59.9032 49.8008 59.7934Z" fill="white"/>
<path d="M61.2489 50.6127C61.2853 50.6493 61.2853 50.6859 61.2853 50.7225V51.8927C61.2853 51.9293 61.2853 51.9659 61.2489 52.0025C61.2124 52.039 61.176 52.039 61.1395 52.039H59.025C58.9885 52.039 58.9521 52.0756 58.9521 52.1122V58.695C58.9521 58.7316 58.9521 58.7682 58.9156 58.8048C58.8791 58.8413 58.8427 58.8413 58.8062 58.8413H57.4208C57.3844 58.8413 57.3479 58.8413 57.3115 58.8048C57.275 58.7682 57.275 58.7316 57.275 58.695V52.1122C57.275 52.0756 57.2386 52.039 57.2021 52.039H55.1605C55.124 52.039 55.0876 52.039 55.0511 52.0025C55.0146 51.9659 55.0146 51.9293 55.0146 51.8927V50.7225C55.0146 50.6859 55.0146 50.6493 55.0511 50.6127C55.0876 50.5762 55.124 50.5762 55.1605 50.5762H61.0666C61.176 50.5762 61.2124 50.5762 61.2489 50.6127Z" fill="white"/>
<path d="M67.993 51.9299C67.9566 51.9664 67.9201 51.9664 67.8837 51.9664H64.0556C64.0192 51.9664 63.9827 52.003 63.9827 52.0396V53.8681C63.9827 53.9047 64.0192 53.9413 64.0556 53.9413H66.5712C66.6077 53.9413 66.6441 53.9413 66.6806 53.9779C66.717 54.0144 66.717 54.051 66.717 54.0876V55.2213C66.717 55.2579 66.717 55.2944 66.6806 55.331C66.6441 55.3676 66.6077 55.3676 66.5712 55.3676H64.0556C64.0192 55.3676 63.9827 55.4041 63.9827 55.4407V57.3424C63.9827 57.379 64.0192 57.4156 64.0556 57.4156H67.8837C67.9201 57.4156 67.9566 57.4156 67.993 57.4521C68.0295 57.4887 68.0295 57.5253 68.0295 57.5619V58.6956C68.0295 58.7321 68.0295 58.7687 67.993 58.8053C67.9566 58.8419 67.9201 58.8419 67.8837 58.8419H62.4515C62.415 58.8419 62.3786 58.8419 62.3421 58.8053C62.3057 58.7687 62.3057 58.7321 62.3057 58.6956V50.7596C62.3057 50.723 62.3057 50.6864 62.3421 50.6499C62.3786 50.6133 62.415 50.6133 62.4515 50.6133H67.8837C67.9201 50.6133 67.9566 50.6133 67.993 50.6499C68.0295 50.6864 68.0295 50.723 68.0295 50.7596V51.8933C68.0295 51.8933 68.0295 51.9299 67.993 51.9299Z" fill="white"/>
<path d="M73.9361 50.6122C73.9726 50.5756 74.009 50.5756 74.0455 50.5756H75.4309C75.4673 50.5756 75.5038 50.5756 75.5402 50.6122C75.5767 50.6488 75.5767 50.6853 75.5767 50.7219V58.6579C75.5767 58.6945 75.5767 58.7311 75.5402 58.7676C75.5038 58.8042 75.4673 58.8042 75.4309 58.8042H74.1184C74.0455 58.8042 73.9726 58.7676 73.9726 58.6945L70.9466 53.6476C70.9466 53.6111 70.9101 53.6111 70.9101 53.6111L70.8737 53.6476L70.9101 58.6214C70.9101 58.6579 70.9101 58.6945 70.8737 58.7311C70.8372 58.7676 70.8007 58.7676 70.7643 58.7676H69.306C69.2695 58.7676 69.2331 58.7676 69.1966 58.7311C69.1602 58.6945 69.1602 58.6579 69.1602 58.6214V50.6853C69.1602 50.6488 69.1602 50.6122 69.1966 50.5756C69.2331 50.5391 69.2695 50.5391 69.306 50.5391H70.6185C70.6914 50.5391 70.7643 50.5756 70.8007 50.6488L73.8267 55.6591C73.8267 55.6956 73.8632 55.6956 73.8632 55.6956L73.8996 55.6591V50.7219C73.8996 50.6488 73.8996 50.6122 73.9361 50.6122Z" fill="white"/>
<path fill-rule="evenodd" clip-rule="evenodd" d="M76.9258 58.6585C76.9258 58.695 76.9258 58.7316 76.9622 58.7682L77.0716 58.8779H79.9882C80.5715 58.8779 81.0819 58.7682 81.5194 58.5488C81.9569 58.3293 82.285 58.0367 82.5402 57.671C82.7954 57.2687 82.9048 56.8665 82.9048 56.3545V53.0996C82.9048 52.5876 82.7954 52.1487 82.5402 51.783C82.285 51.4173 81.9569 51.1247 81.5194 50.9053C81.0819 50.6859 80.5715 50.5762 79.9882 50.5762H77.0716C77.0352 50.5762 76.9987 50.5762 76.9622 50.6127C76.9258 50.6493 76.9258 50.6859 76.9258 50.7225V58.6585ZM80.0244 57.3799H78.6025C78.5843 57.3799 78.5752 57.3707 78.5615 57.357C78.5479 57.3433 78.5296 57.325 78.4932 57.3067V52.0404C78.4932 52.0039 78.5296 51.9673 78.5661 51.9673H79.9879C80.389 51.9673 80.6806 52.077 80.8994 52.333C81.1181 52.589 81.2275 52.9181 81.2275 53.3204V56.0267C81.2275 56.429 81.1181 56.7581 80.8994 57.0141C80.6806 57.2701 80.389 57.3799 80.0244 57.3799Z" fill="white"/>
<path d="M89.7945 51.9299C89.758 51.9664 89.7216 51.9664 89.6851 51.9664H85.8571C85.8206 51.9664 85.7841 52.003 85.7841 52.0396V53.8681C85.7841 53.9047 85.8206 53.9413 85.8571 53.9413H88.3726C88.4091 53.9413 88.4455 53.9413 88.482 53.9779C88.5185 54.0144 88.5185 54.051 88.5185 54.0876V55.2213C88.5185 55.2579 88.5185 55.2944 88.482 55.331C88.4455 55.3676 88.4091 55.3676 88.3726 55.3676H85.8571C85.8206 55.3676 85.7841 55.4041 85.7841 55.4407V57.3424C85.7841 57.379 85.8206 57.4156 85.8571 57.4156H89.7216C89.758 57.4156 89.7945 57.4156 89.8309 57.4521C89.8674 57.4887 89.8674 57.5253 89.8674 57.5619V58.6956C89.8674 58.7321 89.8674 58.7687 89.8309 58.8053C89.7945 58.8419 89.758 58.8419 89.7216 58.8419H84.2894C84.2529 58.8419 84.2165 58.8419 84.18 58.8053C84.1436 58.7687 84.1436 58.7321 84.1436 58.6956V50.7596C84.1436 50.723 84.1436 50.6864 84.18 50.6499C84.2165 50.6133 84.2529 50.6133 84.2894 50.6133H89.7216C89.758 50.6133 89.7945 50.6133 89.8309 50.6499C89.8674 50.6864 89.8674 50.723 89.8674 50.7596V51.8933C89.8309 51.8933 89.8309 51.9299 89.7945 51.9299Z" fill="white"/>
<path d="M95.7379 50.6127C95.7743 50.5762 95.8108 50.5762 95.8472 50.5762H97.2326C97.2691 50.5762 97.3055 50.5762 97.342 50.6127C97.3784 50.6493 97.3784 50.6859 97.3784 50.7225V58.6585C97.3784 58.695 97.3784 58.7316 97.342 58.7682C97.3055 58.8048 97.2691 58.8048 97.2326 58.8048H95.9201C95.8472 58.8048 95.7743 58.7682 95.7743 58.695L92.7483 53.6482C92.7483 53.6116 92.7119 53.6116 92.7119 53.6116L92.6754 53.6482L92.639 58.6585C92.639 58.695 92.639 58.7316 92.6025 58.7682C92.566 58.8048 92.5296 58.8048 92.4931 58.8048H91.1077C91.0713 58.8048 91.0348 58.8048 90.9984 58.7682C90.9619 58.7316 90.9619 58.695 90.9619 58.6585V50.7225C90.9619 50.6859 90.9619 50.6493 90.9984 50.6127C91.0348 50.5762 91.0713 50.5762 91.1077 50.5762H92.4202C92.4931 50.5762 92.566 50.6127 92.6025 50.6859L95.6285 55.6962C95.6285 55.7327 95.6649 55.7327 95.6649 55.7327L95.7014 55.6962V50.759C95.7014 50.6493 95.7014 50.6127 95.7379 50.6127Z" fill="white"/>
<path d="M100.074 58.5125C99.6002 58.2565 99.2721 57.9274 99.0169 57.5251C98.7617 57.0862 98.6523 56.6108 98.6523 56.0257V53.3194C98.6523 52.7708 98.7617 52.2588 99.0169 51.8199C99.2721 51.3811 99.6367 51.0519 100.074 50.8325C100.548 50.6131 101.059 50.4668 101.678 50.4668C102.298 50.4668 102.809 50.5765 103.282 50.7959C103.756 51.0154 104.085 51.3445 104.34 51.7468C104.595 52.1491 104.704 52.6245 104.704 53.1731C104.704 53.2462 104.668 53.2828 104.558 53.3194L103.173 53.3925H103.137C103.064 53.3925 103.027 53.3559 103.027 53.2462C103.027 52.8439 102.918 52.5148 102.663 52.2588C102.407 52.0028 102.079 51.8931 101.678 51.8931C101.241 51.8931 100.913 52.0028 100.658 52.2588C100.402 52.5148 100.293 52.8439 100.293 53.2462V56.0622C100.293 56.4645 100.402 56.7937 100.658 57.0497C100.913 57.3057 101.241 57.4154 101.678 57.4154C102.079 57.4154 102.444 57.3057 102.663 57.0497C102.918 56.7937 103.027 56.4645 103.027 56.0622C103.027 55.9891 103.064 55.9159 103.173 55.9159L104.558 55.9891C104.595 55.9891 104.631 55.9891 104.668 56.0257C104.704 56.0622 104.704 56.0622 104.704 56.0988C104.704 56.6474 104.595 57.1228 104.34 57.5251C104.085 57.9274 103.72 58.2565 103.282 58.4759C102.809 58.6954 102.298 58.8051 101.678 58.8051C101.059 58.8782 100.512 58.7685 100.074 58.5125Z" fill="white"/>
<path d="M105.946 58.7682C105.909 58.7316 105.909 58.695 105.909 58.6585V50.7225C105.909 50.6859 105.909 50.6493 105.946 50.6127C105.982 50.5762 106.019 50.5762 106.055 50.5762H107.44C107.477 50.5762 107.513 50.5762 107.55 50.6127C107.586 50.6493 107.586 50.6859 107.586 50.7225V58.6585C107.586 58.695 107.586 58.7316 107.55 58.7682C107.513 58.8048 107.477 58.8048 107.44 58.8048H106.055C106.019 58.8048 105.982 58.7682 105.946 58.7682Z" fill="white"/>
<path fill-rule="evenodd" clip-rule="evenodd" d="M113.71 57.4882L114.074 58.6585C114.074 58.7219 114.098 58.7609 114.112 58.7825C114.122 58.7983 114.126 58.8048 114.111 58.8048H115.605C115.715 58.8048 115.751 58.7682 115.751 58.695V58.6219L113.236 50.6859C113.236 50.6127 113.163 50.5762 113.09 50.5762H111.267C111.194 50.5762 111.157 50.6127 111.121 50.6859L108.605 58.6219C108.569 58.6585 108.569 58.695 108.605 58.7316C108.642 58.7682 108.678 58.7682 108.715 58.7682H110.21C110.283 58.7682 110.319 58.7316 110.355 58.6585L110.684 57.4882C110.705 57.4671 110.713 57.4582 110.724 57.4544C110.732 57.4516 110.741 57.4516 110.756 57.4516H113.637C113.673 57.4516 113.71 57.4516 113.71 57.4882ZM113.236 56.2095H111.158C111.121 56.2095 111.121 56.1729 111.121 56.1363L112.142 52.6621C112.142 52.6255 112.178 52.6255 112.178 52.6255C112.178 52.6255 112.215 52.6255 112.215 52.6621L113.272 56.1363C113.309 56.1729 113.272 56.2095 113.236 56.2095Z" fill="white"/>
<path d="M117.502 58.5862C117.028 58.4033 116.664 58.1108 116.409 57.7451C116.153 57.3793 116.044 56.9405 116.044 56.4285V56.1725C116.044 56.1359 116.044 56.0993 116.08 56.0628C116.117 56.0262 116.153 56.0262 116.19 56.0262H117.539C117.575 56.0262 117.612 56.0262 117.648 56.0628C117.685 56.0993 117.685 56.1359 117.685 56.1725V56.3553C117.685 56.6845 117.83 56.9405 118.122 57.1599C118.414 57.3793 118.815 57.4891 119.289 57.4891C119.69 57.4891 120.018 57.4159 120.2 57.2331C120.419 57.0502 120.492 56.8308 120.492 56.5748C120.492 56.3919 120.419 56.2456 120.309 56.0993C120.2 55.9531 120.018 55.8433 119.799 55.7702C119.58 55.6605 119.252 55.5508 118.778 55.3679C118.268 55.1851 117.794 55.0022 117.466 54.8193C117.101 54.6365 116.81 54.3805 116.554 54.0513C116.299 53.7222 116.19 53.3199 116.19 52.8445C116.19 52.3691 116.299 51.9668 116.554 51.6011C116.81 51.2353 117.138 50.9793 117.575 50.7965C118.013 50.6136 118.487 50.5039 119.07 50.5039C119.653 50.5039 120.2 50.6136 120.674 50.833C121.148 51.0525 121.513 51.345 121.768 51.7108C122.023 52.0765 122.169 52.5153 122.169 53.0273V53.2102C122.169 53.2468 122.169 53.2833 122.132 53.3199C122.096 53.3565 122.059 53.3565 122.023 53.3565H120.674C120.638 53.3565 120.601 53.3565 120.565 53.3199C120.528 53.2833 120.528 53.2468 120.528 53.2102V53.1005C120.528 52.7713 120.382 52.4788 120.127 52.2593C119.872 52.0399 119.471 51.9302 119.033 51.9302C118.669 51.9302 118.377 52.0033 118.158 52.1496C117.94 52.2959 117.83 52.5153 117.83 52.8079C117.83 52.9908 117.903 53.1736 118.013 53.3199C118.122 53.4662 118.304 53.5759 118.56 53.6856C118.815 53.7953 119.179 53.9416 119.653 54.1245C120.2 54.3439 120.638 54.4902 120.966 54.6731C121.294 54.8193 121.585 55.0753 121.804 55.3679C122.059 55.6605 122.169 56.0628 122.169 56.5748C122.169 57.3062 121.914 57.8913 121.367 58.3302C120.82 58.7691 120.091 58.9885 119.179 58.9885C118.523 58.8788 117.976 58.7691 117.502 58.5862Z" fill="white"/>
<path d="M30.0777 71.3131C30.0413 71.2765 30.0413 71.24 30.0413 71.2034V68.2411C30.0413 68.2045 30.0413 68.168 30.0413 68.168L27.6351 63.304C27.6351 63.2674 27.5986 63.2674 27.5986 63.2308C27.5986 63.1577 27.6351 63.1211 27.7445 63.1211H29.2392C29.3121 63.1211 29.3851 63.1577 29.3851 63.2308L30.8434 66.376C30.8798 66.4125 30.8798 66.4125 30.9163 66.376L32.3746 63.2308C32.411 63.1577 32.4475 63.1211 32.5204 63.1211H34.0152C34.0881 63.1211 34.1245 63.1211 34.1245 63.1577C34.161 63.1942 34.1245 63.2308 34.1245 63.2674L31.6819 68.1314C31.6819 68.1314 31.6819 68.168 31.6819 68.2045V71.1668C31.6819 71.2034 31.6819 71.24 31.6454 71.2765C31.609 71.3131 31.5725 71.3131 31.536 71.3131H30.1871C30.1142 71.3497 30.0777 71.3497 30.0777 71.3131Z" fill="white"/>
<path fill-rule="evenodd" clip-rule="evenodd" d="M40.3951 68.0208L41.8534 71.2757C41.862 71.2843 41.8727 71.2929 41.8839 71.302C41.9202 71.3315 41.9628 71.3661 41.9628 71.4219H43.4211C43.5305 71.4219 43.5669 71.3854 43.5669 71.3122C43.5669 71.3122 43.5305 71.2757 43.5305 71.2391L41.9263 67.9111C41.9263 67.8745 41.9263 67.8379 41.9628 67.8379C42.4732 67.6916 42.8378 67.3991 43.093 67.0334C43.3482 66.6676 43.494 66.2288 43.494 65.6802C43.494 65.1682 43.3846 64.7294 43.1659 64.3636C42.9471 63.9979 42.6555 63.7054 42.2909 63.4859C41.9263 63.3031 41.4888 63.1934 40.9784 63.1934H37.6243C37.5879 63.1934 37.5514 63.1934 37.515 63.2299C37.4785 63.2665 37.4785 63.3031 37.4785 63.3396V71.2757C37.4785 71.3122 37.4785 71.3488 37.515 71.3854C37.5514 71.4219 37.5879 71.4219 37.6243 71.4219H39.0097C39.0462 71.4219 39.0826 71.4219 39.1191 71.3854C39.1556 71.3488 39.1556 71.3122 39.1556 71.2757V68.0574C39.1556 68.0208 39.192 67.9842 39.2285 67.9842H40.3222C40.3587 67.9842 40.3951 67.9842 40.3951 68.0208ZM39.1924 66.6313V64.6198C39.1924 64.5833 39.1924 64.5467 39.2653 64.5833H40.7965C41.1246 64.5833 41.3798 64.693 41.5986 64.8758C41.8173 65.0587 41.9267 65.3147 41.9267 65.6438C41.9267 65.973 41.8173 66.229 41.5986 66.4118C41.3798 66.5947 41.1246 66.7044 40.7965 66.7044H39.2653C39.2288 66.7044 39.1924 66.6678 39.1924 66.6313Z" fill="white"/>
<path d="M44.7718 71.3131C44.7354 71.2765 44.7354 71.24 44.7354 71.2034V63.2674C44.7354 63.2308 44.7354 63.1942 44.7718 63.1577C44.8083 63.1211 44.8447 63.1211 44.8812 63.1211H46.2666C46.303 63.1211 46.3395 63.1211 46.3759 63.1577C46.4124 63.1942 46.4124 63.2308 46.4124 63.2674V71.2034C46.4124 71.24 46.4124 71.2765 46.3759 71.3131C46.3395 71.3497 46.303 71.3497 46.2666 71.3497H44.8812C44.8083 71.3497 44.7718 71.3497 44.7718 71.3131Z" fill="white"/>
<path d="M53.4471 64.5099C53.4107 64.5465 53.3742 64.5465 53.3378 64.5465H49.5097C49.4733 64.5465 49.4368 64.5831 49.4368 64.6196V66.4482C49.4368 66.4848 49.4733 66.5214 49.5097 66.5214H52.0253C52.0618 66.5214 52.0982 66.5214 52.1347 66.5579C52.1711 66.5945 52.1711 66.6311 52.1711 66.6676V67.8014C52.1711 67.8379 52.1711 67.8745 52.1347 67.9111C52.0982 67.9476 52.0618 67.9476 52.0253 67.9476H49.5097C49.4733 67.9476 49.4368 67.9842 49.4368 68.0208V69.9225C49.4368 69.9591 49.4733 69.9957 49.5097 69.9957H53.3378C53.3742 69.9957 53.4107 69.9957 53.4471 70.0322C53.4836 70.0688 53.4836 70.1054 53.4836 70.1419V71.2757C53.4836 71.3122 53.4836 71.3488 53.4471 71.3854C53.4107 71.4219 53.3742 71.4219 53.3378 71.4219H47.9056C47.8691 71.4219 47.8327 71.4219 47.7962 71.3854C47.7598 71.3488 47.7598 71.3122 47.7598 71.2757V63.3396C47.7598 63.3031 47.7598 63.2665 47.7962 63.2299C47.8327 63.1934 47.8691 63.1934 47.9056 63.1934H53.3378C53.3742 63.1934 53.4107 63.1934 53.4471 63.2299C53.4836 63.2665 53.4836 63.3031 53.4836 63.3396V64.4734C53.4836 64.4734 53.4836 64.4734 53.4471 64.5099Z" fill="white"/>
<path d="M55.8187 71.1663C55.3447 70.9834 54.9801 70.6908 54.7249 70.3251C54.4697 69.9594 54.3604 69.5206 54.3604 69.0086V68.7526C54.3604 68.716 54.3604 68.6794 54.3968 68.6428C54.4333 68.6063 54.4697 68.6063 54.5062 68.6063H55.8551C55.8916 68.6063 55.928 68.6063 55.9645 68.6428C56.0009 68.6794 56.0009 68.716 56.0009 68.7526V68.9354C56.0009 69.2646 56.1468 69.5206 56.4384 69.74C56.7301 69.9594 57.1311 70.0691 57.6051 70.0691C58.0061 70.0691 58.3342 69.996 58.5165 69.8131C58.7353 69.6303 58.8082 69.4108 58.8082 69.1548C58.8082 68.972 58.7353 68.8257 58.6259 68.6794C58.5165 68.5331 58.3342 68.4234 58.1155 68.3503C57.8967 68.2406 57.5686 68.1308 57.0947 67.948C56.5843 67.7651 56.1103 67.5823 55.7822 67.3994C55.4176 67.2166 55.126 66.9606 54.8708 66.6314C54.6156 66.3023 54.5062 65.9 54.5062 65.4246C54.5062 64.9491 54.6156 64.5468 54.8708 64.1811C55.126 63.8154 55.4541 63.5594 55.8916 63.3766C56.3291 63.1937 56.803 63.084 57.3863 63.084C57.9696 63.084 58.5165 63.1937 58.9905 63.4131C59.4644 63.6326 59.829 63.9251 60.0842 64.2908C60.3394 64.6566 60.4852 65.0954 60.4852 65.6074V65.7903C60.4852 65.8268 60.4852 65.8634 60.4488 65.9C60.4123 65.9366 60.3758 65.9366 60.3394 65.9366H58.9905C58.954 65.9366 58.9175 65.9366 58.8811 65.9C58.8446 65.8634 58.8446 65.8268 58.8446 65.7903V65.6806C58.8446 65.3514 58.6988 65.0588 58.4436 64.8394C58.1884 64.62 57.7874 64.5103 57.3499 64.5103C56.9853 64.5103 56.6936 64.5834 56.4749 64.7297C56.2561 64.876 56.1468 65.0954 56.1468 65.388C56.1468 65.5708 56.2197 65.7537 56.3291 65.9C56.4384 66.0463 56.6207 66.156 56.8759 66.2657C57.1311 66.3754 57.4957 66.5217 57.9696 66.7046C58.5165 66.924 58.954 67.0703 59.2821 67.2531C59.6102 67.3994 59.9019 67.6554 60.1206 67.948C60.3758 68.2406 60.4852 68.6428 60.4852 69.1548C60.4852 69.8863 60.23 70.4714 59.6832 70.9103C59.1363 71.3491 58.4071 71.5686 57.4957 71.5686C56.8395 71.4588 56.2926 71.3491 55.8187 71.1663Z" fill="white"/>
<path d="M62.9262 71.0926C62.4523 70.8366 62.1242 70.5075 61.869 70.0686C61.6138 69.6297 61.5044 69.1177 61.5044 68.5692V65.936C61.5044 65.3509 61.6138 64.8754 61.869 64.4366C62.1242 63.9977 62.4887 63.6686 62.9262 63.4126C63.4002 63.1566 63.9106 63.0469 64.5304 63.0469C65.1137 63.0469 65.6606 63.1566 66.098 63.4126C66.572 63.632 66.9001 63.9612 67.1553 64.3634C67.4105 64.7657 67.5199 65.2046 67.5199 65.7166V65.7897C67.5199 65.8263 67.5199 65.8629 67.4834 65.8994C67.447 65.936 67.4105 65.936 67.3741 65.936H66.0251C65.9887 65.936 65.9522 65.936 65.9158 65.8994C65.8793 65.8629 65.8793 65.8263 65.8793 65.7897V65.7532C65.8793 65.3874 65.7699 65.0949 65.5147 64.8389C65.2595 64.5829 64.9314 64.4732 64.5304 64.4732C64.0929 64.4732 63.7648 64.6194 63.5096 64.8754C63.2544 65.1314 63.145 65.4972 63.145 65.8994V68.6423C63.145 69.0812 63.2908 69.4103 63.546 69.6663C63.8377 69.9223 64.1658 70.0686 64.6033 70.0686C65.0043 70.0686 65.3324 69.9589 65.5876 69.7395C65.8428 69.52 65.9522 69.2275 65.9522 68.8252V68.3132C65.9522 68.2766 65.9158 68.24 65.8793 68.24H64.5668C64.5304 68.24 64.4939 68.24 64.4575 68.2035C64.421 68.1669 64.421 68.1303 64.421 68.0937V66.9966C64.421 66.96 64.421 66.9235 64.4575 66.8869C64.4939 66.8503 64.5304 66.8503 64.5668 66.8503H67.4105C67.447 66.8503 67.4834 66.8503 67.5199 66.8869C67.5563 66.9235 67.5563 66.96 67.5563 66.9966V68.5326C67.5563 69.1177 67.447 69.6297 67.1918 70.0686C66.9366 70.5075 66.572 70.8366 66.1345 71.056C65.6606 71.2755 65.1501 71.3852 64.5304 71.3852C63.9106 71.4583 63.3637 71.3486 62.9262 71.0926Z" fill="white"/>
<path fill-rule="evenodd" clip-rule="evenodd" d="M69.0143 70.0686C69.2695 70.544 69.6341 70.8732 70.108 71.1292C70.582 71.3852 71.0924 71.4949 71.7122 71.4949C72.3319 71.4949 72.8788 71.3852 73.3528 71.1292C73.8267 70.8732 74.1913 70.5075 74.4465 70.0686C74.7017 69.5932 74.8475 69.0812 74.8475 68.496V65.9726C74.8475 65.3874 74.7017 64.8754 74.4465 64.4366C74.1913 63.9977 73.8267 63.6686 73.3528 63.4126C72.8788 63.1566 72.3319 63.0469 71.7122 63.0469C71.0924 63.0469 70.582 63.1566 70.108 63.4126C69.6341 63.632 69.2695 63.9977 69.0143 64.4366C68.7591 64.8754 68.6133 65.3874 68.6133 65.9726V68.496C68.6133 69.0812 68.7591 69.6297 69.0143 70.0686ZM73.1702 68.5694C73.1702 69.0448 73.0244 69.374 72.7692 69.6665C72.4775 69.9225 72.1494 70.0688 71.7119 70.0688C71.3108 70.0688 70.9463 69.9591 70.6911 69.6665C70.4359 69.374 70.29 69.0082 70.29 68.5694V65.9728C70.29 65.534 70.4359 65.1682 70.6911 64.8757C70.9463 64.6197 71.2744 64.4734 71.7119 64.4734C72.1494 64.4734 72.5139 64.5831 72.7692 64.8757C73.0244 65.1682 73.1702 65.534 73.1702 65.9728V68.5694Z" fill="white"/>
<path d="M77.2562 71.1663C76.7822 70.9834 76.4176 70.6908 76.1624 70.3251C75.9072 69.9594 75.7979 69.5206 75.7979 69.0086V68.7526C75.7979 68.716 75.7979 68.6794 75.8343 68.6428C75.8708 68.6063 75.9072 68.6063 75.9437 68.6063H77.2926C77.3291 68.6063 77.3655 68.6063 77.402 68.6428C77.4384 68.6794 77.4384 68.716 77.4384 68.7526V68.9354C77.4384 69.2646 77.5843 69.5206 77.8759 69.74C78.1676 69.9594 78.5686 70.0691 79.0426 70.0691C79.4436 70.0691 79.7717 69.996 79.954 69.8131C80.1728 69.6303 80.2457 69.4108 80.2457 69.1548C80.2457 68.972 80.1728 68.8257 80.0634 68.6794C79.954 68.5331 79.7717 68.4234 79.553 68.3503C79.3342 68.2406 79.0061 68.1308 78.5322 67.948C78.0218 67.7651 77.5478 67.5823 77.2197 67.3994C76.8551 67.2166 76.5635 66.9606 76.3083 66.6314C76.0531 66.3023 75.9437 65.9 75.9437 65.4246C75.9437 64.9491 76.0531 64.5468 76.3083 64.1811C76.5635 63.8154 76.8916 63.5594 77.3291 63.3766C77.7666 63.1937 78.2405 63.084 78.8238 63.084C79.4071 63.084 79.954 63.1937 80.428 63.4131C80.9019 63.6326 81.2665 63.9251 81.5217 64.2908C81.7769 64.6566 81.9227 65.0954 81.9227 65.6074V65.7903C81.9227 65.8268 81.9227 65.8634 81.8863 65.9C81.8498 65.9366 81.8133 65.9366 81.7769 65.9366H80.428C80.3915 65.9366 80.355 65.9366 80.3186 65.9C80.2821 65.8634 80.2821 65.8268 80.2821 65.7903V65.6806C80.2821 65.3514 80.1363 65.0588 79.8811 64.8394C79.6259 64.62 79.2249 64.5103 78.7874 64.5103C78.4228 64.5103 78.1311 64.5834 77.9124 64.7297C77.6936 64.876 77.5843 65.0954 77.5843 65.388C77.5843 65.5708 77.6572 65.7537 77.7666 65.9C77.8759 66.0463 78.0582 66.156 78.3134 66.2657C78.5686 66.3754 78.9332 66.5217 79.4071 66.7046C79.954 66.924 80.3915 67.0703 80.7196 67.2531C81.0477 67.3994 81.3394 67.6554 81.5581 67.948C81.8133 68.2406 81.9227 68.6428 81.9227 69.1548C81.9227 69.8863 81.6675 70.4714 81.1207 70.9103C80.5738 71.3491 79.8446 71.5686 78.9332 71.5686C78.277 71.4588 77.7301 71.3491 77.2562 71.1663Z" fill="white"/>
</svg>
